{"title":"Jack Ryan Shadow Recruit (2014) BRrip 720p x264 Dual Audio [Eng ","uid":10213570,"size":1029821340,"categoryP":"video","categoryS":"hd___movies","magnet":"?xt=urn:btih:a991cf4b6d9f85cd5930c90ed453f75aaed2c41f&amp;dn=Jack+Ryan+Shadow+Recruit+%282014%29+BRrip+720p+x264+Dual+Audio+%5BEng+&amp;tr=udp%3A%2F%2Ftracker.openbittorrent.com%3A80&amp;tr=udp%3A%2F%2Fopen.demonii.com%3A1337&amp;tr=udp%3A%2F%2Ftracker.coppersurfer.tk%3A6969&amp;tr=udp%3A%2F%2Fexodus.desync.com%3A6969","seeders":0,"leechers":1,"uploader":"Xdesiars","files":4,"time":1400940101,"description":"Format                                   : Matroska\nFormat version                           : Version 2\nFile size                                : 972 MiB\nDuration                                 : 1h 45mn\nOverall bit rate                         : 1 288 Kbps\nMovie name                               : Jack Ryan Shadow Recruit (2014) by XdesiArsenal [ExD-XMR]\nEncoded date                             : UTC 2014-05-24 10:09:58\nWriting application                      : mkvmerge v5.0.1 ('Es ist Sommer') built on Nov 23 2011 20:48:57\nWriting library                          : libebml v1.2.2 + libmatroska v1.3.0\n\nVideo\nID                                       : 1\nFormat                                   : AVC\nFormat/Info                              : Advanced Video Codec\nFormat profile                           : &lt;a class=&quot;__cf_email__&quot; href=&quot;/cdn-cgi/l/email-protection&quot; data-cfemail=&quot;5119383639111d627f60&quot;&gt;[email&amp;#160;protected]&lt;/a&gt;&lt;script data-cfhash='f9e31' type=&quot;text/javascript&quot;&gt;\n/* &lt;![CDATA[ */!function(){try{var t=&quot;currentScript&quot;in document?document.currentScript:function(){for(var t=document.getElementsByTagName(&quot;script&quot;),e=t.length;e--;)if(t[e].getAttribute(&quot;data-cfhash&quot;))return t[e]}();if(t&amp;&amp;t.previousSibling){var e,r,n,i,c=t.previousSibling,a=c.getAttribute(&quot;data-cfemail&quot;);if(a){for(e=&quot;&quot;,r=parseInt(a.substr(0,2),16),n=2;a.length-n;n+=2)i=parseInt(a.substr(n,2),16)^r,e+=String.fromCharCode(i);e=document.createTextNode(e),c.parentNode.replaceChild(e,c)}t.parentNode.removeChild(t);}}catch(u){}}()/* ]]&gt; */&lt;/script&gt;\nFormat settings, CABAC                   : Yes\nFormat settings, ReFrames                : 4 frames\nMuxing mode                              : Header stripping\nCodec ID                                 : V_MPEG4/ISO/AVC\nDuration                                 : 1h 45mn\nBit rate                                 : 1 031 Kbps\nWidth                                    : 1 280 pixels\nHeight                                   : 720 pixels\nDisplay aspect ratio                     : 2.40:1\nFrame rate mode                          : Constant\nFrame rate                               : 23.976 fps\nColor space                              : YUV\nChroma subsampling                       : 4:2:0\nBit depth                                : 8 bits\nScan type                                : Progressive\nBits/(Pixel*Frame)                       : 0.047\nStream size                              : 759 MiB (78%)\nTitle                                    : Jack Ryan Shadow Recruit (2014) by XdesiArsenal [ExD-XMR]\nWriting library                          : x264 core 133 r2334 a3ac64b\nDefault                                  : Yes\nForced                                   : No\n\nAudio #1\nID                                       : 2\nFormat                                   : AC-3\nFormat/Info                              : Audio Coding 3\nMode extension                           : CM (complete main)\nFormat settings, Endianness              : Big\nMuxing mode                              : Header stripping\nCodec ID                                 : A_AC3\nDuration                                 : 1h 45mn\nBit rate mode                            : Constant\nBit rate                                 : 128 Kbps\nChannel(s)                               : 6 channels\nChannel positions                        : Front: L C R, Side: L R, LFE\nSampling rate                            : 48.0 KHz\nBit depth                                : 16 bits\nCompression mode                         : Lossy\nDelay relative to video                  : 1s 0ms\nStream size                              : 96.6 MiB (10%)\nTitle                                    : XdesiArsenal\nLanguage                                 : Hindi\nDefault                                  : Yes\nForced                                   : No\n\nAudio #2\nID                                       : 3\nFormat                                   : AC-3\nFormat/Info                              : Audio Coding 3\nMode extension                           : CM (complete main)\nFormat settings, Endianness              : Big\nMuxing mode                              : Header stripping\nCodec ID                                 : A_AC3\nDuration                                 : 1h 45mn\nBit rate mode                            : Constant\nBit rate                                 : 128 Kbps\nChannel(s)                               : 6 channels\nChannel positions                        : Front: L C R, Side: L R, LFE\nSampling rate                            : 48.0 KHz\nBit depth                                : 16 bits\nCompression mode                         : Lossy\nStream size                              : 96.6 MiB (10%)\nTitle                                    : XdesiArsenal\nLanguage                                 : English\nDefault                                  : No\nForced                                   : No\n\nMenu\n00:00:00.000                             : en:00:00:00.000\n00:05:45.470                             : en:00:05:45.470\n00:12:02.472                             : en:00:12:02.472\n00:18:11.007                             : en:00:18:11.007\n00:23:38.792                             : en:00:23:38.792\n00:31:19.795                             : en:00:31:19.795\n00:40:26.299                             : en:00:40:26.299\n00:48:47.466                             : en:00:48:47.466\n00:57:28.070                             : en:00:57:28.070\n01:06:19.642                             : en:01:06:19.642\n01:13:07.466                             : en:01:13:07.466\n01:21:53.867                             : en:01:21:53.867\n01:27:07.097                             : en:01:27:07.097\n01:35:21.507                             : en:01:35:21.507\n01:38:55.054                             : en:01:38:55.054\n","torrent":{"xt":"urn:btih:a991cf4b6d9f85cd5930c90ed453f75aaed2c41f","amp;dn":"Jack+Ryan+Shadow+Recruit+%282014%29+BRrip+720p+x264+Dual+Audio+%5BEng+","amp;tr":["udp%3A%2F%2Ftracker.openbittorrent.com%3A80","udp%3A%2F%2Fopen.demonii.com%3A1337","udp%3A%2F%2Ftracker.coppersurfer.tk%3A6969","udp%3A%2F%2Fexodus.desync.com%3A6969"],"infoHash":"a991cf4b6d9f85cd5930c90ed453f75aaed2c41f","infoHashBuffer":{"type":"Buffer","data":[169,145,207,75,109,159,133,205,89,48,201,14,212,83,247,90,174,210,196,31]},"announce":[],"urlList":[]}}